<svg id="Raggruppa_6" data-name="Raggruppa 6" xmlns="http://www.w3.org/2000/svg" width="77.747" height="47.999" viewBox="0 0 77.747 47.999">
  <g id="Raggruppa_37316" data-name="Raggruppa 37316">
    <g id="Raggruppa_37118" data-name="Raggruppa 37118">
      <path id="Tracciato_39217" data-name="Tracciato 39217" d="M34.6,7.945V-3.329H-13.465v48H34.6V33.392L64.282,7.945Z" transform="translate(13.465 3.329)" fill="#002d74"/>
    </g>
    <g id="Raggruppa_37315" data-name="Raggruppa 37315" transform="translate(9.48 16.587)">
      <g id="Raggruppa_37149" data-name="Raggruppa 37149" transform="translate(0 8.108)">
        <g id="Raggruppa_37112" data-name="Raggruppa 37112" transform="translate(4.265 3.84)">
          <path id="Tracciato_39210" data-name="Tracciato 39210" d="M-435.913,207.141" transform="translate(435.913 -207.141)" fill="#fff"/>
        </g>
        <g id="Raggruppa_37114" data-name="Raggruppa 37114" transform="translate(3.369 3.182)">
          <path id="Tracciato_39212" data-name="Tracciato 39212" d="M-437.263,206.15" transform="translate(437.263 -206.15)" fill="#fff" stroke="#2b2e34" stroke-width="0.33"/>
        </g>
        <g id="Raggruppa_37115" data-name="Raggruppa 37115">
          <path id="Tracciato_39213" data-name="Tracciato 39213" d="M-435.134,207.082h-4.39l4.39-3.968h0v-1.76h-7.207v1.76h4.389l-4.389,3.966v1.757h7.207Z" transform="translate(442.341 -201.354)" fill="#fff"/>
        </g>
        <path id="Tracciato_39214" data-name="Tracciato 39214" d="M-401.063,208.838h2.007v-7.48h-2.007Z" transform="translate(428.45 -201.355)" fill="#fff"/>
        <g id="Raggruppa_37116" data-name="Raggruppa 37116" transform="translate(18.348 0.003)">
          <path id="Tracciato_39215" data-name="Tracciato 39215" d="M-410.328,204.751l3.251-3.392h-2.684l-2.919,3.056v-3.056h-2.007v7.48h2.006v-1.631l.94-.981,2.069,2.612h2.594Z" transform="translate(414.687 -201.359)" fill="#fff"/>
        </g>
        <g id="Raggruppa_37117" data-name="Raggruppa 37117" transform="translate(8.182 0.003)">
          <path id="Tracciato_39216" data-name="Tracciato 39216" d="M-420.86,208.838l-3.374-7.479h-2.4l-3.374,7.479h2.222l.492-1.138h3.72l.493,1.138Zm-3.473-2.891h-2.2l1.1-2.545Z" transform="translate(430.009 -201.359)" fill="#fff"/>
        </g>
      </g>
      <g id="Raggruppa_37314" data-name="Raggruppa 37314" style="isolation: isolate">
        <path id="Tracciato_39572" data-name="Tracciato 39572" d="M-437.219,194.234l-.219-4.159-1.926,4.159h-.32l-1.919-4.159-.226,4.159h-.512l.3-5.1h.539l1.98,4.282,1.973-4.282H-437l.3,5.1Z" transform="translate(442.341 -189.133)" fill="#fff"/>
        <path id="Tracciato_39573" data-name="Tracciato 39573" d="M-429.177,192.94h-2.677l-.567,1.318h-.553l2.213-5.054h.492l2.213,5.054h-.553Zm-.185-.437-1.147-2.67-1.154,2.67Z" transform="translate(439.189 -189.157)" fill="#fff"/>
        <path id="Tracciato_39574" data-name="Tracciato 39574" d="M-420.326,191.746a2.346,2.346,0,0,1-2.451,2.513h-1.714v-5.054h1.714A2.354,2.354,0,0,1-420.326,191.746Zm-.539,0a1.92,1.92,0,0,0-1.953-2.111h-1.154v4.193h1.154A1.911,1.911,0,0,0-420.865,191.746Z" transform="translate(436.334 -189.157)" fill="#fff"/>
        <path id="Tracciato_39575" data-name="Tracciato 39575" d="M-413.453,193.829v.43h-3.175v-5.054h3.114v.431h-2.595v1.83h2.424v.431h-2.424v1.933Z" transform="translate(433.688 -189.157)" fill="#fff"/>
        <path id="Tracciato_39576" data-name="Tracciato 39576" d="M-407.467,189.205h.519v5.054h-.519Z" transform="translate(430.605 -189.157)" fill="#fff"/>
        <path id="Tracciato_39577" data-name="Tracciato 39577" d="M-404.6,189.205h.334l3.51,4.153-.007-4.153h.519v5.054h-.334l-3.51-4.151.007,4.151h-.519Z" transform="translate(429.642 -189.157)" fill="#fff"/>
      </g>
    </g>
  </g>
</svg>
