<svg id="Raggruppa_6" data-name="Raggruppa 6" xmlns="http://www.w3.org/2000/svg" width="84.229" height="52" viewBox="0 0 84.229 52">
  <g id="Raggruppa_37316" data-name="Raggruppa 37316">
    <g id="Raggruppa_37118" data-name="Raggruppa 37118">
      <path id="Tracciato_39217" data-name="Tracciato 39217" d="M38.6,8.885V-3.329H-13.465v52H38.6V36.453L70.763,8.885Z" transform="translate(13.465 3.329)" fill="#c8b17d"/>
    </g>
    <g id="Raggruppa_37315" data-name="Raggruppa 37315" transform="translate(10.27 17.97)">
      <g id="Raggruppa_37149" data-name="Raggruppa 37149" transform="translate(0 8.784)">
        <g id="Raggruppa_37112" data-name="Raggruppa 37112" transform="translate(4.62 4.16)">
          <path id="Tracciato_39210" data-name="Tracciato 39210" d="M-435.913,207.141" transform="translate(435.913 -207.141)" fill="#1c1f1e"/>
        </g>
        <g id="Raggruppa_37114" data-name="Raggruppa 37114" transform="translate(3.65 3.447)">
          <path id="Tracciato_39212" data-name="Tracciato 39212" d="M-437.263,206.15" transform="translate(437.263 -206.15)" fill="#1c1f1e" stroke="#2b2e34" stroke-width="0.33"/>
        </g>
        <g id="Raggruppa_37115" data-name="Raggruppa 37115">
          <path id="Tracciato_39213" data-name="Tracciato 39213" d="M-434.533,207.56h-4.755l4.755-4.3h0v-1.907h-7.808v1.907h4.755l-4.755,4.3v1.9h7.808Z" transform="translate(442.341 -201.354)" fill="#1c1f1e"/>
        </g>
        <path id="Tracciato_39214" data-name="Tracciato 39214" d="M-401.063,209.462h2.174v-8.1h-2.174Z" transform="translate(430.733 -201.355)" fill="#1c1f1e"/>
        <g id="Raggruppa_37116" data-name="Raggruppa 37116" transform="translate(19.877 0.004)">
          <path id="Tracciato_39215" data-name="Tracciato 39215" d="M-409.964,205.034l3.522-3.675h-2.908l-3.163,3.311v-3.311h-2.174v8.1h2.174V207.7l1.018-1.063,2.241,2.83h2.81Z" transform="translate(414.687 -201.359)" fill="#1c1f1e"/>
        </g>
        <g id="Raggruppa_37117" data-name="Raggruppa 37117" transform="translate(8.864 0.004)">
          <path id="Tracciato_39216" data-name="Tracciato 39216" d="M-420.1,209.462l-3.656-8.1h-2.6l-3.655,8.1h2.407l.533-1.233h4.03l.534,1.233Zm-3.763-3.133h-2.386l1.192-2.757Z" transform="translate(430.009 -201.359)" fill="#1c1f1e"/>
        </g>
      </g>
      <g id="Raggruppa_37314" data-name="Raggruppa 37314" style="isolation: isolate">
        <path id="Tracciato_39572" data-name="Tracciato 39572" d="M-436.792,194.66l-.237-4.505-2.087,4.505h-.347l-2.079-4.505-.244,4.505h-.555l.326-5.527h.584l2.146,4.639,2.138-4.639h.592l.326,5.527Z" transform="translate(442.341 -189.133)" fill="#1c1f1e"/>
        <path id="Tracciato_39573" data-name="Tracciato 39573" d="M-428.86,193.252h-2.9l-.614,1.428h-.6l2.4-5.475h.533l2.4,5.475h-.6Zm-.2-.473-1.243-2.892-1.251,2.892Z" transform="translate(439.707 -189.153)" fill="#1c1f1e"/>
        <path id="Tracciato_39574" data-name="Tracciato 39574" d="M-419.979,191.958a2.542,2.542,0,0,1-2.656,2.722h-1.857V189.2h1.857A2.551,2.551,0,0,1-419.979,191.958Zm-.584,0a2.08,2.08,0,0,0-2.116-2.286h-1.251v4.543h1.251A2.071,2.071,0,0,0-420.563,191.958Z" transform="translate(437.322 -189.153)" fill="#1c1f1e"/>
        <path id="Tracciato_39575" data-name="Tracciato 39575" d="M-413.188,194.214v.466h-3.44V189.2h3.373v.466h-2.811v1.982h2.626v.466h-2.626v2.094Z" transform="translate(435.11 -189.153)" fill="#1c1f1e"/>
        <path id="Tracciato_39576" data-name="Tracciato 39576" d="M-407.467,189.2h.563v5.475h-.563Z" transform="translate(432.534 -189.153)" fill="#1c1f1e"/>
        <path id="Tracciato_39577" data-name="Tracciato 39577" d="M-404.6,189.2h.362l3.8,4.5-.007-4.5h.562v5.475h-.362l-3.8-4.5.008,4.5h-.563Z" transform="translate(431.729 -189.153)" fill="#1c1f1e"/>
      </g>
    </g>
  </g>
</svg>
