<!-- Generated by IcoMoon.io -->
<svg version="1.1" xmlns="http://www.w3.org/2000/svg" width="32" height="32" viewBox="0 0 32 32">
<title>build</title>
<path d="M31.773 26.155l-13.296-13.298c0.398-1.001 0.628-2.161 0.628-3.375 0-2.627-1.080-5.001-2.82-6.704l-0.002-0.002c-1.743-1.719-4.138-2.781-6.781-2.781-1.462 0-2.849 0.325-4.091 0.907l0.059-0.025 6.284 6.282-4.376 4.384-6.439-6.284c-0.587 1.194-0.931 2.598-0.931 4.083 0 2.636 1.083 5.019 2.829 6.729l0.002 0.002c1.704 1.741 4.078 2.821 6.704 2.821 1.215 0 2.376-0.231 3.442-0.652l-0.064 0.022 13.296 13.296c0.257 0.272 0.62 0.441 1.023 0.441s0.766-0.169 1.023-0.44l0.001-0.001 3.36-3.36c0.345-0.241 0.567-0.635 0.567-1.082 0-0.38-0.161-0.723-0.42-0.963l-0.001-0.001z"></path>
</svg>
