<!-- Generated by IcoMoon.io -->
<svg version="1.1" xmlns="http://www.w3.org/2000/svg" width="32" height="32" viewBox="0 0 32 32">
<title>car</title>
<path d="M29.244 12.888l-0.75-1.874-1.328-3.322c-1.12-2.772-3.79-4.692-6.907-4.692-0.009 0-0.017 0-0.026 0h-8.467c-0.007-0-0.015-0-0.023-0-3.119 0-5.789 1.921-6.891 4.644l-0.018 0.050-1.328 3.322-0.75 1.874c-1.622 0.624-2.752 2.167-2.756 3.976v3.2c0.002 1.077 0.406 2.059 1.070 2.804l-0.004-0.004v3.6c0 1.179 0.955 2.134 2.134 2.134h2.134c1.179 0 2.134-0.955 2.134-2.134v0-2.132h17.066v2.134c0.001 1.177 0.955 2.131 2.132 2.132h2.134c1.179 0 2.134-0.955 2.134-2.134v0-3.6c0.66-0.741 1.064-1.723 1.066-2.8v-3.2c-0.003-1.809-1.134-3.354-2.727-3.968l-0.029-0.010zM8.8 9.278c0.484-1.188 1.629-2.010 2.966-2.012h8.466c1.338 0.001 2.484 0.824 2.96 1.991l0.008 0.021 1.334 3.322h-17.068l1.334-3.322zM5.334 20.054c-1.175 0-2.127-0.952-2.127-2.127s0.952-2.127 2.127-2.127v0c1.613 0.338 2.862 1.587 3.195 3.173l0.005 0.027c0 1.266-1.92 1.054-3.2 1.054zM26.668 20.054c-1.28 0-3.2 0.212-3.2-1.064 0.338-1.613 1.587-2.862 3.173-3.195l0.027-0.005c1.175 0 2.127 0.952 2.127 2.127s-0.952 2.127-2.127 2.127v0z"></path>
</svg>
