<!-- Generated by IcoMoon.io -->
<svg version="1.1" xmlns="http://www.w3.org/2000/svg" width="28" height="32" viewBox="0 0 28 32">
<title>chair</title>
<path d="M7.004 8c0.006-1.832 1-3.431 2.476-4.293l0.024-0.013v12.306h3v-13h3v13h3v-12.306c1.5 0.875 2.494 2.474 2.5 4.305v8.001h3v-8c0-4.418-3.582-8-8-8v0h-4c-4.418 0-8 3.582-8 8v0 8h3zM27.898 21.368l-0.668-2c-0.273-0.802-1.019-1.368-1.898-1.368-0.002 0-0.003 0-0.005 0h-22.658c-0.001 0-0.002 0-0.002 0-0.878 0-1.625 0.566-1.893 1.354l-0.004 0.014-0.668 2c-0.065 0.189-0.102 0.406-0.102 0.632 0 1.105 0.895 2 2 2 0.002 0 0.003 0 0.005 0h-0v7c0 0.552 0.448 1 1 1v0h2c0.552 0 1-0.448 1-1v0-7h16v7c0 0.552 0.448 1 1 1v0h2c0.552 0 1-0.448 1-1v0-7c1.102-0.003 1.994-0.897 1.994-2 0-0.226-0.038-0.443-0.107-0.646l0.004 0.014z"></path>
</svg>
