<!-- Generated by IcoMoon.io -->
<svg version="1.1" xmlns="http://www.w3.org/2000/svg" width="24" height="32" viewBox="0 0 24 32">
<title>fire</title>
<path d="M13.5 1.492c-0.003-0.828-0.674-1.497-1.502-1.497-0.524 0-0.986 0.269-1.255 0.676l-0.004 0.006c-7.74 11.324 3.26 11.824 3.26 17.324-0.017 2.196-1.801 3.97-4 3.97-2.209 0-4-1.791-4-4 0-0.011 0-0.021 0-0.032v0.002-5.34c0-0 0-0.001 0-0.002 0-0.828-0.672-1.5-1.5-1.5-0.429 0-0.816 0.18-1.089 0.469l-0.001 0.001c-2.079 2.198-3.37 5.16-3.41 8.424l-0 0.008c0 6.627 5.373 12 12 12s12-5.373 12-12v0c0-10.644-10.5-12.062-10.5-18.508z"></path>
</svg>
