<!-- Generated by IcoMoon.io -->
<svg version="1.1" xmlns="http://www.w3.org/2000/svg" width="32" height="32" viewBox="0 0 32 32">
<title>home</title>
<path d="M15.576 10.454l-10.242 8.438v9.104c0 0.49 0.398 0.888 0.888 0.888v0l6.226-0.016c0.489-0.002 0.884-0.399 0.884-0.888 0 0 0 0 0 0v0-5.318c0-0.49 0.398-0.888 0.888-0.888v0h3.556c0.49 0 0.888 0.398 0.888 0.888v0 5.312c0 0.001 0 0.003 0 0.004 0 0.49 0.398 0.888 0.888 0.888 0 0 0 0 0 0v0l6.222 0.018c0.49 0 0.888-0.398 0.888-0.888v0-9.104l-10.236-8.438c-0.115-0.093-0.264-0.15-0.425-0.15s-0.31 0.056-0.426 0.151l0.001-0.001zM31.754 16.188l-4.644-3.828v-7.694c0-0.368-0.298-0.666-0.666-0.666v0h-3.112c-0.368 0-0.666 0.298-0.666 0.666v0 4.026l-4.974-4.084c-0.457-0.378-1.049-0.607-1.694-0.607s-1.237 0.229-1.698 0.611l0.004-0.004-14.062 11.58c-0.148 0.123-0.241 0.307-0.241 0.513 0 0.162 0.058 0.311 0.154 0.426l-0.001-0.001 1.416 1.722c0.123 0.149 0.308 0.243 0.515 0.243 0.162 0 0.311-0.058 0.426-0.154l13.065-10.759c0.115-0.093 0.264-0.15 0.425-0.15s0.31 0.056 0.426 0.151l-0.001-0.001 13.068 10.762c0.114 0.095 0.263 0.153 0.425 0.153 0.206 0 0.39-0.093 0.512-0.24l0.001-0.001 1.416-1.722c0.095-0.114 0.152-0.262 0.152-0.423 0-0.208-0.095-0.394-0.245-0.516l-0.001-0.001z"></path>
</svg>
