<!-- Generated by IcoMoon.io -->
<svg version="1.1" xmlns="http://www.w3.org/2000/svg" width="32" height="32" viewBox="0 0 32 32">
<title>images</title>
<path d="M26.666 25.334v0.888c0 1.472-1.194 2.666-2.666 2.666v0h-21.334c-1.472 0-2.666-1.194-2.666-2.666v0-14.222c0-1.472 1.194-2.666 2.666-2.666v0h0.888v11.556c0.003 2.454 1.992 4.442 4.446 4.444h0zM32 20.888v-14.222c0-1.472-1.194-2.666-2.666-2.666h-21.334c-1.472 0-2.666 1.194-2.666 2.666v0 14.222c0 0.001 0 0.001 0 0.002 0 1.472 1.194 2.666 2.666 2.666h21.334c1.472 0 2.666-1.194 2.666-2.666 0-0.001 0-0.001 0-0.002v0zM14.222 9.334c-0.001 1.472-1.194 2.664-2.666 2.664s-2.666-1.194-2.666-2.666 1.194-2.666 2.666-2.666v0c1.472 0 2.666 1.194 2.666 2.666 0 0.001 0 0.001 0 0.002v-0zM8.888 17.334l3.086-3.084c0.121-0.121 0.287-0.195 0.471-0.195s0.35 0.075 0.471 0.195l2.2 2.2 7.524-7.534c0.121-0.121 0.287-0.195 0.471-0.195s0.35 0.075 0.471 0.195l4.862 4.862v6.222h-19.556z"></path>
</svg>
