<!-- Generated by IcoMoon.io -->
<svg version="1.1" xmlns="http://www.w3.org/2000/svg" width="32" height="32" viewBox="0 0 32 32">
<title>info</title>
<path d="M0 16c0-8.837 7.163-16 16-16s16 7.163 16 16c0 8.837-7.163 16-16 16v0c-8.837 0-16-7.163-16-16v0zM6.968 6.97c-2.313 2.312-3.744 5.507-3.744 9.036 0 7.056 5.72 12.776 12.776 12.776s12.776-5.72 12.776-12.776c0-7.056-5.72-12.776-12.776-12.776v0c-0.007 0-0.016-0-0.024-0-3.519 0-6.705 1.43-9.008 3.74l-0 0zM14.386 24v-9.614h3.23v9.614zM14.386 11.23v-3.23h3.23v3.23z"></path>
</svg>
