<!-- Generated by IcoMoon.io -->
<svg version="1.1" xmlns="http://www.w3.org/2000/svg" width="32" height="32" viewBox="0 0 32 32">
<title>leaf</title>
<path d="M30.344 2.54c-0.132-0.319-0.441-0.54-0.801-0.54-0.335 0-0.625 0.191-0.769 0.469l-0.002 0.005c-1.665 2.923-4.76 4.862-8.307 4.862-0.007 0-0.015 0-0.022-0h-4.451c-5.889 0.005-10.661 4.779-10.662 10.668v0c0.009 0.412 0.039 0.806 0.090 1.193l-0.006-0.055c4.219-2.946 9.455-4.707 15.102-4.707 0.287 0 0.573 0.005 0.858 0.014l-0.042-0.001c0.491 0 0.889 0.398 0.889 0.889s-0.398 0.889-0.889 0.889v0c-13.968 0-19.89 8.562-21.202 11.778-0.081 0.196-0.128 0.424-0.128 0.663 0 0.983 0.797 1.78 1.78 1.78 0.735 0 1.366-0.446 1.638-1.081l0.004-0.012c0.98-2.002 2.329-3.682 3.973-5.012l0.027-0.021c1.959 2.647 5.071 4.345 8.58 4.345 0.4 0 0.794-0.022 1.182-0.065l-0.048 0.004c8.722-0.628 14.854-8.45 14.854-18.028 0-0.013 0-0.029 0-0.044 0-2.889-0.606-5.636-1.699-8.121l0.051 0.13z"></path>
</svg>
