<!-- Generated by IcoMoon.io -->
<svg version="1.1" xmlns="http://www.w3.org/2000/svg" width="22" height="32" viewBox="0 0 22 32">
<title>lightbulb</title>
<path d="M6 28.4c0 0.412 0.125 0.795 0.339 1.113l-0.005-0.007 1.068 1.6c0.364 0.542 0.974 0.894 1.666 0.894 0.001 0 0.003 0 0.004 0h3.856c0.691-0 1.3-0.351 1.659-0.885l0.005-0.007 1.068-1.6c0.212-0.311 0.338-0.695 0.34-1.108v-2.4h-10v2.4zM0 11c0 0.005 0 0.010 0 0.015 0 2.773 1.032 5.305 2.732 7.232l-0.010-0.012c1.378 1.618 2.487 3.516 3.225 5.59l0.039 0.126 0.014 0.048h10v-0.048c0.781-2.2 1.894-4.099 3.299-5.741l-0.021 0.025c1.691-1.924 2.722-4.464 2.722-7.244 0-6.075-4.925-11-11-11s-11 4.925-11 11c0 0.003 0 0.006 0 0.008v-0zM11 6c-2.761 0-5 2.239-5 5v0c0 0.552-0.448 1-1 1s-1-0.448-1-1v0c0-3.866 3.134-7 7-7v0c0.552 0 1 0.448 1 1s-0.448 1-1 1v0z"></path>
</svg>
