<!-- Generated by IcoMoon.io -->
<svg version="1.1" xmlns="http://www.w3.org/2000/svg" width="32" height="32" viewBox="0 0 32 32">
<title>list-bulleted</title>
<path d="M2.594 13.378c-1.436 0-2.6 1.164-2.6 2.6s1.164 2.6 2.6 2.6c1.436 0 2.6-1.164 2.6-2.6v0c0-1.436-1.164-2.6-2.6-2.6v0zM2.594 3c-1.436 0-2.6 1.164-2.6 2.6s1.164 2.6 2.6 2.6c1.436 0 2.6-1.164 2.6-2.6v0c0-1.436-1.164-2.6-2.6-2.6v0zM2.594 23.756c-1.436 0-2.6 1.164-2.6 2.6s1.164 2.6 2.6 2.6c1.436 0 2.6-1.164 2.6-2.6v0c0-1.436-1.164-2.6-2.6-2.6v0zM7.784 28.080h24.216v-3.46h-24.216zM7.784 17.702h24.216v-3.46h-24.216zM7.784 3.864v3.46h24.216v-3.46z"></path>
</svg>
