<!-- Generated by IcoMoon.io -->
<svg version="1.1" xmlns="http://www.w3.org/2000/svg" width="32" height="32" viewBox="0 0 32 32">
<title>metro-tags</title>
<path d="M30.78 3h-9.752c-0.805 0.046-1.527 0.365-2.083 0.865l0.003-0.003-12.092 12.092c-0.22 0.221-0.356 0.526-0.356 0.862s0.136 0.641 0.356 0.862l10.466 10.466c0.221 0.22 0.526 0.356 0.862 0.356s0.641-0.136 0.862-0.356l12.092-12.092c0.497-0.553 0.816-1.276 0.862-2.071l0-0.009v-9.752c-0.001-0.673-0.547-1.219-1.22-1.22h-0zM24.694 12.752c-1.346 0-2.438-1.092-2.438-2.438s1.092-2.438 2.438-2.438c1.346 0 2.438 1.092 2.438 2.438v0c0 1.346-1.092 2.438-2.438 2.438v0zM2.744 16.816l13.816-13.816h-2.032c-0.805 0.046-1.527 0.365-2.083 0.865l0.003-0.003-12.092 12.092c-0.22 0.221-0.356 0.526-0.356 0.862s0.136 0.641 0.356 0.862l10.466 10.466c0.221 0.22 0.526 0.356 0.862 0.356s0.641-0.136 0.862-0.356l0.764-0.764-10.566-10.564z"></path>
</svg>
