<!-- Generated by IcoMoon.io -->
<svg version="1.1" xmlns="http://www.w3.org/2000/svg" width="32" height="32" viewBox="0 0 32 32">
<title>metro-shop</title>
<path d="M9.108 11.334l1.4-9.334h-7.308l-3.056 8c-0.091 0.264-0.144 0.569-0.144 0.886 0 0.001 0 0.001 0 0.002v-0c0.293 2.036 2.026 3.583 4.12 3.583 0.16 0 0.318-0.009 0.473-0.027l-0.019 0.002c0.111 0.010 0.24 0.016 0.37 0.016 1.964 0 3.623-1.306 4.156-3.097l0.008-0.031zM16 14.446c0.136 0.016 0.294 0.025 0.454 0.025 2.093 0 3.825-1.546 4.117-3.559l0.003-0.022c0-0.072 0-0.146 0-0.216l-0.904-8.674h-7.326l-0.908 8.668c0 0.072 0 0.146 0 0.222 0.294 2.035 2.026 3.58 4.119 3.58 0.159 0 0.315-0.009 0.469-0.026l-0.019 0.002zM24.888 16.306v7.030h-17.776v-7.020c-0.752 0.279-1.621 0.44-2.528 0.44-0.004 0-0.009 0-0.013 0h0.001c-0.364-0.006-0.715-0.038-1.058-0.094l0.042 0.006v11.288c0.002 1.373 1.113 2.485 2.486 2.49h19.914c1.372-0.006 2.482-1.116 2.488-2.487v-11.289c-0.3 0.049-0.651 0.081-1.008 0.088l-0.008 0c-0.911-0.002-1.784-0.168-2.589-0.471l0.051 0.017zM31.856 10.002l-3.060-8h-7.31l1.4 9.32c0.532 1.829 2.193 3.142 4.161 3.142 0.133 0 0.264-0.006 0.394-0.018l-0.017 0.001c0.135 0.016 0.292 0.024 0.451 0.024 2.093 0 3.825-1.546 4.117-3.558l0.003-0.022c-0-0.318-0.052-0.623-0.148-0.908l0.006 0.020z"></path>
</svg>
