<!-- Generated by IcoMoon.io -->
<svg version="1.1" xmlns="http://www.w3.org/2000/svg" width="32" height="32" viewBox="0 0 32 32">
<title>one-layer</title>
<path d="M0.776 17.252l14.558 6.6c0.195 0.091 0.424 0.145 0.665 0.145s0.47-0.053 0.675-0.149l-0.010 0.004 14.558-6.6c0.461-0.235 0.771-0.707 0.771-1.251s-0.31-1.016-0.764-1.247l-0.008-0.004-14.556-6.604c-0.195-0.091-0.424-0.145-0.665-0.145s-0.47 0.053-0.675 0.149l0.010-0.004-14.56 6.6c-0.461 0.235-0.771 0.707-0.771 1.251s0.31 1.016 0.764 1.247l0.008 0.004z"></path>
</svg>
