<!-- Generated by IcoMoon.io -->
<svg version="1.1" xmlns="http://www.w3.org/2000/svg" width="32" height="32" viewBox="0 0 32 32">
<title>parking</title>
<path d="M28.572 0h-25.144c-1.893 0.001-3.427 1.535-3.428 3.428v25.144c0.001 1.893 1.535 3.427 3.428 3.428h25.144c1.893-0.001 3.427-1.535 3.428-3.428v-25.144c-0.001-1.893-1.535-3.427-3.428-3.428h-0zM17.142 20.572h-3.428v3.428c-0.002 0.63-0.512 1.14-1.142 1.142h-2.286c-0.63-0.002-1.14-0.512-1.142-1.142v-16c0.002-0.63 0.512-1.14 1.142-1.142h6.856c0.035-0.001 0.076-0.001 0.117-0.001 3.788 0 6.858 3.070 6.858 6.858s-3.070 6.858-6.858 6.858c-0.041 0-0.082-0-0.123-0.001l0.006 0zM17.142 11.43h-3.428v4.57h3.428c1.263 0 2.286-1.023 2.286-2.286s-1.023-2.286-2.286-2.286v0z"></path>
</svg>
