<!-- Generated by IcoMoon.io -->
<svg version="1.1" xmlns="http://www.w3.org/2000/svg" width="32" height="32" viewBox="0 0 32 32">
<title>phone2</title>
<path d="M31.088 22.614l-7-3c-0.173-0.076-0.375-0.12-0.588-0.12-0.468 0-0.885 0.214-1.16 0.549l-0.002 0.003-3.1 3.788c-4.886-2.34-8.736-6.19-11.016-10.937l-0.060-0.139 3.788-3.1c0.338-0.276 0.553-0.694 0.553-1.161 0-0.213-0.044-0.415-0.124-0.598l0.004 0.010-3-7c-0.239-0.539-0.769-0.908-1.385-0.908-0.119 0-0.235 0.014-0.346 0.040l0.010-0.002-6.5 1.5c-0.671 0.159-1.162 0.753-1.162 1.461 0 0 0 0 0 0.001v-0c0 16.016 12.984 29 29 29v0c0 0 0 0 0.001 0 0.709 0 1.302-0.491 1.459-1.152l0.002-0.010 1.5-6.5c0.024-0.1 0.037-0.215 0.037-0.334 0-0.62-0.371-1.153-0.903-1.388l-0.010-0.004z"></path>
</svg>
