<!-- Generated by IcoMoon.io -->
<svg version="1.1" xmlns="http://www.w3.org/2000/svg" width="32" height="32" viewBox="0 0 32 32">
<title>phone</title>
<path d="M30.838 1.538l-6.5-1.5c-0.1-0.024-0.216-0.037-0.334-0.037-0.615 0-1.145 0.368-1.38 0.896l-0.004 0.010-3 7c-0.076 0.174-0.121 0.376-0.121 0.589 0 0.467 0.214 0.885 0.55 1.159l0.003 0.002 3.788 3.1c-2.34 4.885-6.189 8.734-10.935 11.014l-0.139 0.060-3.1-3.788c-0.277-0.338-0.694-0.552-1.162-0.552-0.213 0-0.415 0.044-0.598 0.124l0.010-0.004-7 3c-0.541 0.24-0.911 0.773-0.911 1.391 0 0.118 0.013 0.233 0.039 0.343l-0.002-0.010 1.5 6.5c0.157 0.673 0.75 1.167 1.46 1.168h0c16.016 0 29-12.984 29-29v0c0-0.001 0-0.002 0-0.004 0-0.709-0.492-1.303-1.154-1.458l-0.010-0.002z"></path>
</svg>
