<!-- Generated by IcoMoon.io -->
<svg version="1.1" xmlns="http://www.w3.org/2000/svg" width="32" height="32" viewBox="0 0 32 32">
<title>piggy-bank</title>
<path d="M31.11 14.444h-1.638c-0.512-1.141-1.212-2.11-2.071-2.911l-0.005-0.005 1.050-4.2h-1.778c-1.627 0.005-3.080 0.741-4.049 1.898l-0.007 0.008c-0.376-0.069-0.817-0.115-1.266-0.128l-0.012-0h-7.114c-4.28 0.004-7.853 3.029-8.7 7.058l-0.010 0.058h-2.4c-0.736-0.001-1.333-0.598-1.333-1.334 0-0.094 0.010-0.186 0.028-0.275l-0.002 0.009c0.143-0.615 0.686-1.066 1.334-1.066 0.010 0 0.019 0 0.029 0l-0.001-0h0.056c0.184 0 0.334-0.15 0.334-0.334v0-1.11c0-0.184-0.15-0.334-0.334-0.334v0c-0.016-0-0.035-0-0.055-0-1.587 0-2.903 1.162-3.143 2.682l-0.002 0.018c-0.017 0.123-0.027 0.264-0.027 0.408 0 1.72 1.394 3.114 3.114 3.114 0 0 0.001 0 0.001 0h2.222c0.007 2.885 1.393 5.444 3.533 7.056l0.023 0.016v4.484c0.002 0.49 0.398 0.886 0.888 0.888h3.556c0.49-0.002 0.886-0.398 0.888-0.888v-2.666h7.112v2.666c0.002 0.49 0.398 0.886 0.888 0.888h3.556c0.49-0.002 0.886-0.398 0.888-0.888v-4.482c0.662-0.503 1.235-1.076 1.722-1.716l0.016-0.022h2.706c0.49-0.002 0.887-0.4 0.888-0.89v-7.112c-0.001-0.49-0.397-0.887-0.886-0.89h-0zM23.996 18c-0.49 0-0.888-0.398-0.888-0.888s0.398-0.888 0.888-0.888c0.49 0 0.888 0.398 0.888 0.888v0c-0.002 0.49-0.398 0.886-0.888 0.888h-0zM14.22 7.334h7.112c0.3 0 0.6 0.022 0.884 0.044 0-0.016 0-0.028 0-0.044 0-2.946-2.388-5.334-5.334-5.334s-5.334 2.388-5.334 5.334v0c0 0.116 0.028 0.228 0.034 0.344 0.791-0.215 1.699-0.341 2.636-0.344h0.002z"></path>
</svg>
