<!-- Generated by IcoMoon.io -->
<svg version="1.1" xmlns="http://www.w3.org/2000/svg" width="32" height="32" viewBox="0 0 32 32">
<title>power-cord</title>
<path d="M32 9.428l-3.020-3.020-5.966 5.966-3.388-3.388 5.966-5.966-3.020-3.020-5.966 5.966-3.83-3.822-2.892 2.884 17.088 17.088 2.892-2.892-3.83-3.83zM24.328 22.488l-14.816-14.812c-3.2 3.836-6.826 9.762-4.318 14.86l-4.416 4.408c-0.481 0.484-0.779 1.151-0.779 1.888s0.297 1.404 0.779 1.888l0.496 0.496c0.484 0.481 1.151 0.779 1.888 0.779s1.404-0.297 1.888-0.779l4.414-4.414c5.098 2.508 11.024-1.12 14.86-4.318z"></path>
</svg>
