<!-- Generated by IcoMoon.io -->
<svg version="1.1" xmlns="http://www.w3.org/2000/svg" width="30" height="32" viewBox="0 0 30 32">
<title>shield-alt</title>
<path d="M28.15 5.23l-12-5c-0.341-0.146-0.737-0.23-1.153-0.23s-0.812 0.085-1.173 0.238l0.020-0.007-12 5c-1.091 0.464-1.843 1.527-1.844 2.766v0c0 12.4 7.156 20.984 13.846 23.772 0.341 0.146 0.737 0.23 1.153 0.23s0.812-0.085 1.173-0.238l-0.020 0.007c5.356-2.23 13.85-9.936 13.85-23.772-0.002-1.24-0.757-2.304-1.832-2.759l-0.020-0.007zM15.008 27.894v-23.814l11 4.582c-0.2 9.464-5.132 16.32-10.988 19.234z"></path>
</svg>
