<!-- Generated by IcoMoon.io -->
<svg version="1.1" xmlns="http://www.w3.org/2000/svg" width="32" height="32" viewBox="0 0 32 32">
<title>solar-panel</title>
<path d="M21.6 25.4h-2.4v-1.6h-6.4v1.61h-2.4c-0.442 0-0.8 0.358-0.8 0.8v1.59c0 0.442 0.358 0.8 0.8 0.8v0l11.2-0.012c0.442 0 0.8-0.358 0.8-0.8v-1.588c0-0.442-0.358-0.8-0.8-0.8v0zM29.26 4.336c-0.14-0.764-0.801-1.336-1.595-1.336-0.002 0-0.004 0-0.005 0h-23.314c-0.002 0-0.003 0-0.005 0-0.794 0-1.455 0.572-1.593 1.326l-0.002 0.010c-2.912 17.122-2.746 16.064-2.746 16.264 0.009 0.886 0.729 1.6 1.616 1.6 0.005 0 0.010-0 0.015-0h28.737c0.005 0 0.011 0 0.016 0 0.883 0 1.601-0.709 1.616-1.589l0-0.001c0-0.2 0.168 0.848-2.738-16.274zM13 6.2h6l0.496 4.8h-7zM9.232 19h-5.678l0.95-5.6h5.296zM10.046 11h-5.134l0.814-4.8h4.8zM11.686 19l0.57-5.6h7.484l0.57 5.6zM21.46 6.2h4.8l0.828 4.8h-5.136zM22.766 19l-0.566-5.6h5.298l0.948 5.6h-5.68z"></path>
</svg>
