<!-- Generated by IcoMoon.io -->
<svg version="1.1" xmlns="http://www.w3.org/2000/svg" width="33" height="32" viewBox="0 0 33 32">
<title>star</title>
<path d="M14.924 1.114l-4.081 8.273-9.129 1.331c-0.973 0.146-1.711 0.976-1.711 1.979 0 0.562 0.232 1.070 0.605 1.433l0 0 6.605 6.436-1.563 9.092c-0.018 0.102-0.029 0.219-0.029 0.339 0 1.103 0.894 1.998 1.998 1.998 0.341 0 0.662-0.085 0.942-0.236l-0.011 0.005 8.168-4.294 8.166 4.294c0.269 0.144 0.589 0.229 0.929 0.229 1.104 0 2-0.895 2-2 0-0.119-0.010-0.235-0.030-0.347l0.002 0.012-1.563-9.090 6.605-6.436c0.374-0.364 0.605-0.872 0.605-1.434 0-1.002-0.738-1.833-1.7-1.977l-0.011-0.001-9.129-1.331-4.081-8.275c-0.335-0.665-1.012-1.113-1.794-1.113s-1.459 0.448-1.789 1.102l-0.005 0.011z"></path>
</svg>
