<!-- Generated by IcoMoon.io -->
<svg version="1.1" xmlns="http://www.w3.org/2000/svg" width="32" height="32" viewBox="0 0 32 32">
<title>sunny</title>
<path d="M10.732 28.6c-2.753-0.087-4.952-2.339-4.952-5.106 0-2.609 1.956-4.761 4.481-5.070l0.025-0.002c0-0.020 0-0.046 0-0.072-0.020-0.22-0.034-0.446-0.034-0.672 0-0.14 0-0.274 0.014-0.414 0.208-3.971 3.479-7.111 7.482-7.111 3.568 0 6.554 2.495 7.308 5.835l0.009 0.050c0.149-0.017 0.321-0.027 0.495-0.027 0.037 0 0.074 0 0.11 0.001l-0.005-0h0.16c3.479 0 6.3 2.821 6.3 6.3s-2.821 6.3-6.3 6.3v0zM3.026 20.116c-0.188-0.191-0.305-0.453-0.305-0.743s0.116-0.552 0.305-0.743l-0 0 1.354-1.366c0.187-0.172 0.437-0.277 0.712-0.277 0.582 0 1.054 0.472 1.054 1.054 0 0.273-0.104 0.522-0.275 0.709l0.001-0.001-1.354 1.366c-0.19 0.194-0.454 0.314-0.747 0.314s-0.557-0.12-0.747-0.314l-0-0zM5.046 12.85c0-0 0-0 0-0 0-2.697 2.187-4.884 4.884-4.884 1.554 0 2.938 0.725 3.832 1.856l0.008 0.010c-0.39 0.152-0.72 0.314-1.034 0.498l0.034-0.018c-2.183 1.276-3.662 3.55-3.811 6.18l-0.001 0.020c0 0.14-0.014 0.28-0.014 0.42 0 0.228 0.014 0.454 0.034 0.68v0.020c-2.255-0.459-3.929-2.425-3.932-4.782v-0zM1.046 14.196c-0.578-0.006-1.044-0.474-1.046-1.052v-0.020c0.002-0.581 0.473-1.051 1.054-1.052h2.092c0.581 0.001 1.052 0.471 1.054 1.052v0.020c-0.003 0.582-0.476 1.052-1.058 1.052-0.001 0-0.001 0-0.002 0h0zM4.246 8.664l-1.352-1.364c-0.202-0.192-0.328-0.463-0.328-0.764 0-0.582 0.472-1.054 1.054-1.054 0.302 0 0.575 0.127 0.767 0.331l0 0.001 1.354 1.366c0.211 0.193 0.342 0.47 0.342 0.777 0 0.582-0.472 1.054-1.054 1.054-0.309 0-0.587-0.133-0.779-0.345l-0.001-0.001zM14.176 8.61v0l-0.020-0.020c-0.188-0.191-0.305-0.453-0.305-0.743s0.116-0.552 0.305-0.743l-0 0 1.354-1.36c0.19-0.192 0.454-0.311 0.746-0.311 0.58 0 1.051 0.47 1.051 1.051 0 0.289-0.116 0.55-0.305 0.74l0-0-1.354 1.36c-0.191 0.192-0.456 0.311-0.748 0.312h-0c-0.003 0-0.006 0-0.009 0-0.276 0-0.527-0.108-0.713-0.284l0 0zM10.126 7.126c-0.58-0.002-1.050-0.472-1.052-1.052v-2.022c0.002-0.58 0.472-1.050 1.052-1.052h0.020c0.581 0.001 1.052 0.471 1.054 1.052v2.020c-0.002 0.581-0.473 1.051-1.054 1.052h-0z"></path>
</svg>
