<!-- Generated by IcoMoon.io -->
<svg version="1.1" xmlns="http://www.w3.org/2000/svg" width="32" height="32" viewBox="0 0 32 32">
<title>temperature-low</title>
<path d="M26 0c-3.314 0-6 2.686-6 6s2.686 6 6 6c3.314 0 6-2.686 6-6v0c0-3.314-2.686-6-6-6v0zM26 8c-1.105 0-2-0.895-2-2s0.895-2 2-2c1.105 0 2 0.895 2 2v0c0 1.105-0.895 2-2 2v0zM16 7c0-3.866-3.134-7-7-7s-7 3.134-7 7v0 10.4c-1.226 1.523-1.968 3.48-1.968 5.611 0 4.962 4.022 8.984 8.984 8.984s8.984-4.022 8.984-8.984c0-0.004 0-0.008 0-0.012v0.001c-0.007-2.131-0.761-4.085-2.013-5.616l0.013 0.016zM9 28c-2.755-0.009-4.984-2.244-4.984-5 0-1.623 0.773-3.066 1.972-3.979l0.012-0.009v-12.012c0-1.657 1.343-3 3-3s3 1.343 3 3v0 12.012c1.211 0.922 1.984 2.365 1.984 3.988 0 2.756-2.23 4.991-4.983 5h-0.001zM10 20.182v-1.182c0-0.552-0.448-1-1-1s-1 0.448-1 1v0 1.182c-1.175 0.424-2 1.53-2 2.828 0 1.657 1.343 3 3 3s3-1.343 3-3c0-1.298-0.825-2.404-1.979-2.822l-0.021-0.007z"></path>
</svg>
