<!-- Generated by IcoMoon.io -->
<svg version="1.1" xmlns="http://www.w3.org/2000/svg" width="24" height="32" viewBox="0 0 24 32">
<title>tree</title>
<path d="M23.644 23.654l-4.994-5.654h1.914c0.004 0 0.008 0 0.013 0 0.565 0 1.053-0.33 1.281-0.808l0.004-0.009c0.087-0.175 0.138-0.382 0.138-0.6 0-0.346-0.128-0.663-0.339-0.905l0.001 0.002-4.886-5.68h1.8c0.002 0 0.004 0 0.006 0 0.577 0 1.074-0.345 1.294-0.841l0.004-0.009c0.071-0.162 0.112-0.351 0.112-0.549 0-0.369-0.143-0.705-0.377-0.956l0.001 0.001-6.888-7.344c-0.186-0.187-0.444-0.302-0.729-0.302s-0.543 0.116-0.729 0.302v0l-6.892 7.342c-0.233 0.249-0.376 0.585-0.376 0.955 0 0.198 0.041 0.387 0.116 0.558l-0.003-0.009c0.224 0.506 0.721 0.852 1.299 0.852 0.002 0 0.004 0 0.005 0h1.8l-4.878 5.68c-0.209 0.241-0.337 0.557-0.337 0.903 0 0.218 0.050 0.424 0.14 0.607l-0.004-0.008c0.232 0.487 0.72 0.818 1.286 0.818 0.003 0 0.006 0 0.008-0h1.914l-5 5.656c-0.22 0.244-0.355 0.569-0.355 0.925 0 0.215 0.049 0.418 0.137 0.6l-0.004-0.008c0.238 0.494 0.735 0.828 1.31 0.828 0.004 0 0.007 0 0.011-0h8.553v1.528l-1.894 3.024c-0.067 0.131-0.106 0.285-0.106 0.448 0 0.552 0.448 1 1 1h6c0.552-0 1-0.448 1-1 0-0.163-0.039-0.317-0.109-0.454l0.003 0.006-1.894-3.026v-1.526h8.554c0.001 0 0.003 0 0.004 0 0.575 0 1.071-0.334 1.306-0.819l0.004-0.009c0.084-0.173 0.133-0.376 0.133-0.591 0-0.357-0.136-0.683-0.358-0.928l0.001 0.001z"></path>
</svg>
