<!-- Generated by IcoMoon.io -->
<svg version="1.1" xmlns="http://www.w3.org/2000/svg" width="32" height="32" viewBox="0 0 32 32">
<title>two-layer</title>
<path d="M0.776 13.252l14.558 6.6c0.195 0.091 0.424 0.145 0.665 0.145s0.47-0.053 0.675-0.149l-0.010 0.004 14.558-6.6c0.461-0.235 0.771-0.707 0.771-1.251s-0.31-1.016-0.764-1.247l-0.008-0.004-14.556-6.604c-0.195-0.091-0.424-0.145-0.665-0.145s-0.47 0.053-0.675 0.149l0.010-0.004-14.56 6.6c-0.461 0.235-0.771 0.707-0.771 1.251s0.31 1.016 0.764 1.247l0.008 0.004zM31.224 18.77l-3.624-1.646-10.11 4.58c-0.438 0.204-0.951 0.323-1.491 0.323s-1.053-0.119-1.513-0.333l0.022 0.009-10.108-4.58-3.624 1.646c-0.46 0.236-0.77 0.707-0.77 1.25s0.309 1.014 0.762 1.246l0.008 0.004 14.558 6.6c0.195 0.091 0.424 0.145 0.665 0.145s0.47-0.053 0.675-0.149l-0.010 0.004 14.56-6.6c0.46-0.236 0.77-0.707 0.77-1.25s-0.309-1.014-0.762-1.246l-0.008-0.004z"></path>
</svg>
