<!-- Generated by IcoMoon.io -->
<svg version="1.1" xmlns="http://www.w3.org/2000/svg" width="32" height="32" viewBox="0 0 32 32">
<title>wind</title>
<path d="M9.8 15.996h-8.8c-0.552 0-1 0.448-1 1v0 2c0 0.552 0.448 1 1 1v0h8.888c0.013-0 0.028-0 0.044-0 1.002 0 1.84 0.706 2.042 1.649l0.002 0.014c0.022 0.111 0.035 0.239 0.035 0.37 0 1.105-0.895 2-2 2-0.891 0-1.646-0.583-1.905-1.388l-0.004-0.014c-0.147-0.373-0.504-0.632-0.922-0.632-0.010 0-0.020 0-0.030 0l0.001-0h-2.052c-0.003-0-0.007-0-0.011-0-0.552 0-1 0.448-1 1 0 0.053 0.004 0.105 0.012 0.156l-0.001-0.006c0.563 2.777 2.984 4.838 5.886 4.838 3.314 0 6-2.686 6-6 0-0.274-0.018-0.543-0.054-0.807l0.003 0.031c-0.464-2.967-3.001-5.21-6.062-5.21-0.026 0-0.052 0-0.078 0l0.004-0zM1 13.996h21c0.001 0 0.002 0 0.002 0 3.314 0 6-2.686 6-6s-2.686-6-6-6c-2.91 0-5.336 2.071-5.884 4.82l-0.006 0.038c-0.008 0.048-0.013 0.102-0.013 0.158 0 0.545 0.441 0.986 0.986 0.986 0.005 0 0.010-0 0.016-0h2.049c0.010 0 0.021 0.001 0.032 0.001 0.417 0 0.773-0.26 0.915-0.626l0.002-0.007c0.262-0.819 1.017-1.402 1.909-1.402 1.105 0 2 0.895 2 2 0 0.131-0.013 0.259-0.037 0.383l0.002-0.013c-0.202 0.956-1.038 1.663-2.039 1.663-0.017 0-0.034-0-0.051-0.001l0.003 0h-20.886c-0.552 0-1 0.448-1 1v0 2c0 0.552 0.448 1 1 1v0zM25 15.996h-9.77c1.189 1.029 2.062 2.393 2.476 3.945l0.012 0.055h7.282c0.004-0 0.008-0 0.013-0 1.657 0 3 1.343 3 3s-1.343 3-3 3c-1.115 0-2.088-0.608-2.605-1.511l-0.008-0.015c-0.187-0.287-0.506-0.475-0.87-0.475-0.013 0-0.026 0-0.038 0.001l0.002-0h-2.114c-0.002-0-0.005-0-0.008-0-0.552 0-1 0.448-1 1 0 0.114 0.019 0.223 0.054 0.325l-0.002-0.007c0.986 2.75 3.57 4.682 6.605 4.682 3.866 0 7-3.134 7-7s-3.134-7-7-7c-0.010 0-0.020 0-0.031 0h0.002z"></path>
</svg>
