<svg aria-hidden="true" style="position: absolute; width: 0; height: 0; overflow: hidden;" version="1.1" xmlns="http://www.w3.org/2000/svg" xmlns:xlink="http://www.w3.org/1999/xlink">
<defs>
<symbol id="icozaux1-car" viewBox="0 0 32 32">
<path d="M29.244 12.888l-0.75-1.874-1.328-3.322c-1.12-2.772-3.79-4.692-6.907-4.692-0.009 0-0.017 0-0.026 0h-8.467c-0.007-0-0.015-0-0.023-0-3.119 0-5.789 1.921-6.891 4.644l-0.018 0.050-1.328 3.322-0.75 1.874c-1.622 0.624-2.752 2.167-2.756 3.976v3.2c0.002 1.077 0.406 2.059 1.070 2.804l-0.004-0.004v3.6c0 1.179 0.955 2.134 2.134 2.134h2.134c1.179 0 2.134-0.955 2.134-2.134v0-2.132h17.066v2.134c0.001 1.177 0.955 2.131 2.132 2.132h2.134c1.179 0 2.134-0.955 2.134-2.134v0-3.6c0.66-0.741 1.064-1.723 1.066-2.8v-3.2c-0.003-1.809-1.134-3.354-2.727-3.968l-0.029-0.010zM8.8 9.278c0.484-1.188 1.629-2.010 2.966-2.012h8.466c1.338 0.001 2.484 0.824 2.96 1.991l0.008 0.021 1.334 3.322h-17.068l1.334-3.322zM5.334 20.054c-1.175 0-2.127-0.952-2.127-2.127s0.952-2.127 2.127-2.127v0c1.613 0.338 2.862 1.587 3.195 3.173l0.005 0.027c0 1.266-1.92 1.054-3.2 1.054zM26.668 20.054c-1.28 0-3.2 0.212-3.2-1.064 0.338-1.613 1.587-2.862 3.173-3.195l0.027-0.005c1.175 0 2.127 0.952 2.127 2.127s-0.952 2.127-2.127 2.127v0z"></path>
</symbol>
<symbol id="icozaux1-chair" viewBox="0 0 28 32">
<path d="M7.004 8c0.006-1.832 1-3.431 2.476-4.293l0.024-0.013v12.306h3v-13h3v13h3v-12.306c1.5 0.875 2.494 2.474 2.5 4.305v8.001h3v-8c0-4.418-3.582-8-8-8v0h-4c-4.418 0-8 3.582-8 8v0 8h3zM27.898 21.368l-0.668-2c-0.273-0.802-1.019-1.368-1.898-1.368-0.002 0-0.003 0-0.005 0h-22.658c-0.001 0-0.002 0-0.002 0-0.878 0-1.625 0.566-1.893 1.354l-0.004 0.014-0.668 2c-0.065 0.189-0.102 0.406-0.102 0.632 0 1.105 0.895 2 2 2 0.002 0 0.003 0 0.005 0h-0v7c0 0.552 0.448 1 1 1v0h2c0.552 0 1-0.448 1-1v0-7h16v7c0 0.552 0.448 1 1 1v0h2c0.552 0 1-0.448 1-1v0-7c1.102-0.003 1.994-0.897 1.994-2 0-0.226-0.038-0.443-0.107-0.646l0.004 0.014z"></path>
</symbol>
<symbol id="icozaux1-home" viewBox="0 0 32 32">
<path d="M15.576 10.454l-10.242 8.438v9.104c0 0.49 0.398 0.888 0.888 0.888v0l6.226-0.016c0.489-0.002 0.884-0.399 0.884-0.888 0 0 0 0 0 0v0-5.318c0-0.49 0.398-0.888 0.888-0.888v0h3.556c0.49 0 0.888 0.398 0.888 0.888v0 5.312c0 0.001 0 0.003 0 0.004 0 0.49 0.398 0.888 0.888 0.888 0 0 0 0 0 0v0l6.222 0.018c0.49 0 0.888-0.398 0.888-0.888v0-9.104l-10.236-8.438c-0.115-0.093-0.264-0.15-0.425-0.15s-0.31 0.056-0.426 0.151l0.001-0.001zM31.754 16.188l-4.644-3.828v-7.694c0-0.368-0.298-0.666-0.666-0.666v0h-3.112c-0.368 0-0.666 0.298-0.666 0.666v0 4.026l-4.974-4.084c-0.457-0.378-1.049-0.607-1.694-0.607s-1.237 0.229-1.698 0.611l0.004-0.004-14.062 11.58c-0.148 0.123-0.241 0.307-0.241 0.513 0 0.162 0.058 0.311 0.154 0.426l-0.001-0.001 1.416 1.722c0.123 0.149 0.308 0.243 0.515 0.243 0.162 0 0.311-0.058 0.426-0.154l13.065-10.759c0.115-0.093 0.264-0.15 0.425-0.15s0.31 0.056 0.426 0.151l-0.001-0.001 13.068 10.762c0.114 0.095 0.263 0.153 0.425 0.153 0.206 0 0.39-0.093 0.512-0.24l0.001-0.001 1.416-1.722c0.095-0.114 0.152-0.262 0.152-0.423 0-0.208-0.095-0.394-0.245-0.516l-0.001-0.001z"></path>
</symbol>
<symbol id="icozaux1-images" viewBox="0 0 32 32">
<path d="M26.666 25.334v0.888c0 1.472-1.194 2.666-2.666 2.666v0h-21.334c-1.472 0-2.666-1.194-2.666-2.666v0-14.222c0-1.472 1.194-2.666 2.666-2.666v0h0.888v11.556c0.003 2.454 1.992 4.442 4.446 4.444h0zM32 20.888v-14.222c0-1.472-1.194-2.666-2.666-2.666h-21.334c-1.472 0-2.666 1.194-2.666 2.666v0 14.222c0 0.001 0 0.001 0 0.002 0 1.472 1.194 2.666 2.666 2.666h21.334c1.472 0 2.666-1.194 2.666-2.666 0-0.001 0-0.001 0-0.002v0zM14.222 9.334c-0.001 1.472-1.194 2.664-2.666 2.664s-2.666-1.194-2.666-2.666 1.194-2.666 2.666-2.666v0c1.472 0 2.666 1.194 2.666 2.666 0 0.001 0 0.001 0 0.002v-0zM8.888 17.334l3.086-3.084c0.121-0.121 0.287-0.195 0.471-0.195s0.35 0.075 0.471 0.195l2.2 2.2 7.524-7.534c0.121-0.121 0.287-0.195 0.471-0.195s0.35 0.075 0.471 0.195l4.862 4.862v6.222h-19.556z"></path>
</symbol>
<symbol id="icozaux1-one-layer" viewBox="0 0 32 32">
<path d="M0.776 17.252l14.558 6.6c0.195 0.091 0.424 0.145 0.665 0.145s0.47-0.053 0.675-0.149l-0.010 0.004 14.558-6.6c0.461-0.235 0.771-0.707 0.771-1.251s-0.31-1.016-0.764-1.247l-0.008-0.004-14.556-6.604c-0.195-0.091-0.424-0.145-0.665-0.145s-0.47 0.053-0.675 0.149l0.010-0.004-14.56 6.6c-0.461 0.235-0.771 0.707-0.771 1.251s0.31 1.016 0.764 1.247l0.008 0.004z"></path>
</symbol>
<symbol id="icozaux1-two-layer" viewBox="0 0 32 32">
<path d="M0.776 13.252l14.558 6.6c0.195 0.091 0.424 0.145 0.665 0.145s0.47-0.053 0.675-0.149l-0.010 0.004 14.558-6.6c0.461-0.235 0.771-0.707 0.771-1.251s-0.31-1.016-0.764-1.247l-0.008-0.004-14.556-6.604c-0.195-0.091-0.424-0.145-0.665-0.145s-0.47 0.053-0.675 0.149l0.010-0.004-14.56 6.6c-0.461 0.235-0.771 0.707-0.771 1.251s0.31 1.016 0.764 1.247l0.008 0.004zM31.224 18.77l-3.624-1.646-10.11 4.58c-0.438 0.204-0.951 0.323-1.491 0.323s-1.053-0.119-1.513-0.333l0.022 0.009-10.108-4.58-3.624 1.646c-0.46 0.236-0.77 0.707-0.77 1.25s0.309 1.014 0.762 1.246l0.008 0.004 14.558 6.6c0.195 0.091 0.424 0.145 0.665 0.145s0.47-0.053 0.675-0.149l-0.010 0.004 14.56-6.6c0.46-0.236 0.77-0.707 0.77-1.25s-0.309-1.014-0.762-1.246l-0.008-0.004z"></path>
</symbol>
<symbol id="icozaux1-piggy-bank" viewBox="0 0 32 32">
<path d="M31.11 14.444h-1.638c-0.512-1.141-1.212-2.11-2.071-2.911l-0.005-0.005 1.050-4.2h-1.778c-1.627 0.005-3.080 0.741-4.049 1.898l-0.007 0.008c-0.376-0.069-0.817-0.115-1.266-0.128l-0.012-0h-7.114c-4.28 0.004-7.853 3.029-8.7 7.058l-0.010 0.058h-2.4c-0.736-0.001-1.333-0.598-1.333-1.334 0-0.094 0.010-0.186 0.028-0.275l-0.002 0.009c0.143-0.615 0.686-1.066 1.334-1.066 0.010 0 0.019 0 0.029 0l-0.001-0h0.056c0.184 0 0.334-0.15 0.334-0.334v0-1.11c0-0.184-0.15-0.334-0.334-0.334v0c-0.016-0-0.035-0-0.055-0-1.587 0-2.903 1.162-3.143 2.682l-0.002 0.018c-0.017 0.123-0.027 0.264-0.027 0.408 0 1.72 1.394 3.114 3.114 3.114 0 0 0.001 0 0.001 0h2.222c0.007 2.885 1.393 5.444 3.533 7.056l0.023 0.016v4.484c0.002 0.49 0.398 0.886 0.888 0.888h3.556c0.49-0.002 0.886-0.398 0.888-0.888v-2.666h7.112v2.666c0.002 0.49 0.398 0.886 0.888 0.888h3.556c0.49-0.002 0.886-0.398 0.888-0.888v-4.482c0.662-0.503 1.235-1.076 1.722-1.716l0.016-0.022h2.706c0.49-0.002 0.887-0.4 0.888-0.89v-7.112c-0.001-0.49-0.397-0.887-0.886-0.89h-0zM23.996 18c-0.49 0-0.888-0.398-0.888-0.888s0.398-0.888 0.888-0.888c0.49 0 0.888 0.398 0.888 0.888v0c-0.002 0.49-0.398 0.886-0.888 0.888h-0zM14.22 7.334h7.112c0.3 0 0.6 0.022 0.884 0.044 0-0.016 0-0.028 0-0.044 0-2.946-2.388-5.334-5.334-5.334s-5.334 2.388-5.334 5.334v0c0 0.116 0.028 0.228 0.034 0.344 0.791-0.215 1.699-0.341 2.636-0.344h0.002z"></path>
</symbol>
<symbol id="icozaux1-users" viewBox="0 0 32 32">
<path d="M4.8 14.6c1.767 0 3.2-1.433 3.2-3.2s-1.433-3.2-3.2-3.2c-1.767 0-3.2 1.433-3.2 3.2v0c0 1.767 1.433 3.2 3.2 3.2v0zM27.2 14.6c1.767 0 3.2-1.433 3.2-3.2s-1.433-3.2-3.2-3.2c-1.767 0-3.2 1.433-3.2 3.2v0c0 1.767 1.433 3.2 3.2 3.2v0zM28.8 16.2h-3.2c-0.88 0-1.676 0.356-2.254 0.93l0-0c2.016 1.113 3.434 3.098 3.75 5.432l0.004 0.038h3.3c0.884 0 1.6-0.716 1.6-1.6v0-1.6c0-1.767-1.433-3.2-3.2-3.2v0zM16 16.2c3.093 0 5.6-2.507 5.6-5.6s-2.507-5.6-5.6-5.6c-3.093 0-5.6 2.507-5.6 5.6v0c0 3.093 2.507 5.6 5.6 5.6v0zM19.84 17.8h-0.414c-0.999 0.505-2.177 0.8-3.425 0.8s-2.426-0.295-3.469-0.82l0.044 0.020h-0.416c-3.181 0.001-5.759 2.579-5.76 5.76v1.44c0 1.325 1.075 2.4 2.4 2.4v0h14.4c1.325 0 2.4-1.075 2.4-2.4v0-1.44c-0.001-3.181-2.579-5.759-5.76-5.76h-0zM8.654 17.13c-0.578-0.574-1.375-0.93-2.254-0.93h-3.2c-1.767 0-3.2 1.433-3.2 3.2v0 1.6c0 0.884 0.716 1.6 1.6 1.6v0h3.294c0.325-2.372 1.744-4.356 3.722-5.451l0.038-0.019z"></path>
</symbol>
<symbol id="icozaux1-sunny" viewBox="0 0 32 32">
<path d="M10.732 28.6c-2.753-0.087-4.952-2.339-4.952-5.106 0-2.609 1.956-4.761 4.481-5.070l0.025-0.002c0-0.020 0-0.046 0-0.072-0.020-0.22-0.034-0.446-0.034-0.672 0-0.14 0-0.274 0.014-0.414 0.208-3.971 3.479-7.111 7.482-7.111 3.568 0 6.554 2.495 7.308 5.835l0.009 0.050c0.149-0.017 0.321-0.027 0.495-0.027 0.037 0 0.074 0 0.11 0.001l-0.005-0h0.16c3.479 0 6.3 2.821 6.3 6.3s-2.821 6.3-6.3 6.3v0zM3.026 20.116c-0.188-0.191-0.305-0.453-0.305-0.743s0.116-0.552 0.305-0.743l-0 0 1.354-1.366c0.187-0.172 0.437-0.277 0.712-0.277 0.582 0 1.054 0.472 1.054 1.054 0 0.273-0.104 0.522-0.275 0.709l0.001-0.001-1.354 1.366c-0.19 0.194-0.454 0.314-0.747 0.314s-0.557-0.12-0.747-0.314l-0-0zM5.046 12.85c0-0 0-0 0-0 0-2.697 2.187-4.884 4.884-4.884 1.554 0 2.938 0.725 3.832 1.856l0.008 0.010c-0.39 0.152-0.72 0.314-1.034 0.498l0.034-0.018c-2.183 1.276-3.662 3.55-3.811 6.18l-0.001 0.020c0 0.14-0.014 0.28-0.014 0.42 0 0.228 0.014 0.454 0.034 0.68v0.020c-2.255-0.459-3.929-2.425-3.932-4.782v-0zM1.046 14.196c-0.578-0.006-1.044-0.474-1.046-1.052v-0.020c0.002-0.581 0.473-1.051 1.054-1.052h2.092c0.581 0.001 1.052 0.471 1.054 1.052v0.020c-0.003 0.582-0.476 1.052-1.058 1.052-0.001 0-0.001 0-0.002 0h0zM4.246 8.664l-1.352-1.364c-0.202-0.192-0.328-0.463-0.328-0.764 0-0.582 0.472-1.054 1.054-1.054 0.302 0 0.575 0.127 0.767 0.331l0 0.001 1.354 1.366c0.211 0.193 0.342 0.47 0.342 0.777 0 0.582-0.472 1.054-1.054 1.054-0.309 0-0.587-0.133-0.779-0.345l-0.001-0.001zM14.176 8.61v0l-0.020-0.020c-0.188-0.191-0.305-0.453-0.305-0.743s0.116-0.552 0.305-0.743l-0 0 1.354-1.36c0.19-0.192 0.454-0.311 0.746-0.311 0.58 0 1.051 0.47 1.051 1.051 0 0.289-0.116 0.55-0.305 0.74l0-0-1.354 1.36c-0.191 0.192-0.456 0.311-0.748 0.312h-0c-0.003 0-0.006 0-0.009 0-0.276 0-0.527-0.108-0.713-0.284l0 0zM10.126 7.126c-0.58-0.002-1.050-0.472-1.052-1.052v-2.022c0.002-0.58 0.472-1.050 1.052-1.052h0.020c0.581 0.001 1.052 0.471 1.054 1.052v2.020c-0.002 0.581-0.473 1.051-1.054 1.052h-0z"></path>
</symbol>
<symbol id="icozaux1-close" viewBox="0 0 32 32">
<path d="M32 3.2l-3.2-3.2-12.8 12.8-12.8-12.8-3.2 3.2 12.8 12.8-12.8 12.8 3.2 3.2 12.8-12.8 12.8 12.8 3.2-3.2-12.8-12.8z"></path>
</symbol>
<symbol id="icozaux1-document" viewBox="0 0 25 32">
<path d="M14.77 0h-11.694c-1.699 0-3.076 1.377-3.076 3.076v0 25.848c0 1.699 1.377 3.076 3.076 3.076v0h18.462c1.699 0 3.076-1.377 3.076-3.076v-19.074zM13.54 11.076v-8.614l8.616 8.616z"></path>
</symbol>
<symbol id="icozaux1-list-bulleted" viewBox="0 0 32 32">
<path d="M2.594 13.378c-1.436 0-2.6 1.164-2.6 2.6s1.164 2.6 2.6 2.6c1.436 0 2.6-1.164 2.6-2.6v0c0-1.436-1.164-2.6-2.6-2.6v0zM2.594 3c-1.436 0-2.6 1.164-2.6 2.6s1.164 2.6 2.6 2.6c1.436 0 2.6-1.164 2.6-2.6v0c0-1.436-1.164-2.6-2.6-2.6v0zM2.594 23.756c-1.436 0-2.6 1.164-2.6 2.6s1.164 2.6 2.6 2.6c1.436 0 2.6-1.164 2.6-2.6v0c0-1.436-1.164-2.6-2.6-2.6v0zM7.784 28.080h24.216v-3.46h-24.216zM7.784 17.702h24.216v-3.46h-24.216zM7.784 3.864v3.46h24.216v-3.46z"></path>
</symbol>
<symbol id="icozaux1-metro-map" viewBox="0 0 32 32">
<path d="M0 6l10-4v24l-10 4zM12 1l10 6v23l-10-5zM24 7l8-6v24l-8 6z"></path>
</symbol>
<symbol id="icozaux1-metro-tags" viewBox="0 0 32 32">
<path d="M30.78 3h-9.752c-0.805 0.046-1.527 0.365-2.083 0.865l0.003-0.003-12.092 12.092c-0.22 0.221-0.356 0.526-0.356 0.862s0.136 0.641 0.356 0.862l10.466 10.466c0.221 0.22 0.526 0.356 0.862 0.356s0.641-0.136 0.862-0.356l12.092-12.092c0.497-0.553 0.816-1.276 0.862-2.071l0-0.009v-9.752c-0.001-0.673-0.547-1.219-1.22-1.22h-0zM24.694 12.752c-1.346 0-2.438-1.092-2.438-2.438s1.092-2.438 2.438-2.438c1.346 0 2.438 1.092 2.438 2.438v0c0 1.346-1.092 2.438-2.438 2.438v0zM2.744 16.816l13.816-13.816h-2.032c-0.805 0.046-1.527 0.365-2.083 0.865l0.003-0.003-12.092 12.092c-0.22 0.221-0.356 0.526-0.356 0.862s0.136 0.641 0.356 0.862l10.466 10.466c0.221 0.22 0.526 0.356 0.862 0.356s0.641-0.136 0.862-0.356l0.764-0.764-10.566-10.564z"></path>
</symbol>
<symbol id="icozaux1-arrow-dropdown" viewBox="0 0 32 32">
<path d="M32 8l-16 16-16-16z"></path>
</symbol>
<symbol id="icozaux1-arrow-right" viewBox="0 0 32 32">
<path d="M9.76 0l-3.76 3.76 12.212 12.24-12.212 12.24 3.76 3.76 16-16z"></path>
</symbol>
<symbol id="icozaux1-phone" viewBox="0 0 32 32">
<path d="M30.838 1.538l-6.5-1.5c-0.1-0.024-0.216-0.037-0.334-0.037-0.615 0-1.145 0.368-1.38 0.896l-0.004 0.010-3 7c-0.076 0.174-0.121 0.376-0.121 0.589 0 0.467 0.214 0.885 0.55 1.159l0.003 0.002 3.788 3.1c-2.34 4.885-6.189 8.734-10.935 11.014l-0.139 0.060-3.1-3.788c-0.277-0.338-0.694-0.552-1.162-0.552-0.213 0-0.415 0.044-0.598 0.124l0.010-0.004-7 3c-0.541 0.24-0.911 0.773-0.911 1.391 0 0.118 0.013 0.233 0.039 0.343l-0.002-0.010 1.5 6.5c0.157 0.673 0.75 1.167 1.46 1.168h0c16.016 0 29-12.984 29-29v0c0-0.001 0-0.002 0-0.004 0-0.709-0.492-1.303-1.154-1.458l-0.010-0.002z"></path>
</symbol>
<symbol id="icozaux1-seedling" viewBox="0 0 32 32">
<path d="M4 6h-4c0 7.732 6.268 14 14 14v0 9c0 0.552 0.448 1 1 1v0h2c0.552 0 1-0.448 1-1v0-9c0-7.732-6.268-14-14-14v0zM28 2c-0 0-0.001 0-0.001 0-5.233 0-9.796 2.874-12.194 7.13l-0.036 0.070c1.7 1.845 2.978 4.107 3.662 6.614l0.026 0.112c7.080-0.762 12.544-6.705 12.544-13.924 0-0.001 0-0.001 0-0.002v0z"></path>
</symbol>
<symbol id="icozaux1-lightbulb" viewBox="0 0 22 32">
<path d="M6 28.4c0 0.412 0.125 0.795 0.339 1.113l-0.005-0.007 1.068 1.6c0.364 0.542 0.974 0.894 1.666 0.894 0.001 0 0.003 0 0.004 0h3.856c0.691-0 1.3-0.351 1.659-0.885l0.005-0.007 1.068-1.6c0.212-0.311 0.338-0.695 0.34-1.108v-2.4h-10v2.4zM0 11c0 0.005 0 0.010 0 0.015 0 2.773 1.032 5.305 2.732 7.232l-0.010-0.012c1.378 1.618 2.487 3.516 3.225 5.59l0.039 0.126 0.014 0.048h10v-0.048c0.781-2.2 1.894-4.099 3.299-5.741l-0.021 0.025c1.691-1.924 2.722-4.464 2.722-7.244 0-6.075-4.925-11-11-11s-11 4.925-11 11c0 0.003 0 0.006 0 0.008v-0zM11 6c-2.761 0-5 2.239-5 5v0c0 0.552-0.448 1-1 1s-1-0.448-1-1v0c0-3.866 3.134-7 7-7v0c0.552 0 1 0.448 1 1s-0.448 1-1 1v0z"></path>
</symbol>
<symbol id="icozaux1-solar-panel" viewBox="0 0 32 32">
<path d="M21.6 25.4h-2.4v-1.6h-6.4v1.61h-2.4c-0.442 0-0.8 0.358-0.8 0.8v1.59c0 0.442 0.358 0.8 0.8 0.8v0l11.2-0.012c0.442 0 0.8-0.358 0.8-0.8v-1.588c0-0.442-0.358-0.8-0.8-0.8v0zM29.26 4.336c-0.14-0.764-0.801-1.336-1.595-1.336-0.002 0-0.004 0-0.005 0h-23.314c-0.002 0-0.003 0-0.005 0-0.794 0-1.455 0.572-1.593 1.326l-0.002 0.010c-2.912 17.122-2.746 16.064-2.746 16.264 0.009 0.886 0.729 1.6 1.616 1.6 0.005 0 0.010-0 0.015-0h28.737c0.005 0 0.011 0 0.016 0 0.883 0 1.601-0.709 1.616-1.589l0-0.001c0-0.2 0.168 0.848-2.738-16.274zM13 6.2h6l0.496 4.8h-7zM9.232 19h-5.678l0.95-5.6h5.296zM10.046 11h-5.134l0.814-4.8h4.8zM11.686 19l0.57-5.6h7.484l0.57 5.6zM21.46 6.2h4.8l0.828 4.8h-5.136zM22.766 19l-0.566-5.6h5.298l0.948 5.6h-5.68z"></path>
</symbol>
<symbol id="icozaux1-local-hospital" viewBox="0 0 32 32">
<path d="M28.444 0h-24.888c-1.955 0.007-3.538 1.594-3.538 3.55 0 0.002 0 0.004 0 0.006v-0l-0.018 24.888c0.006 1.962 1.594 3.55 3.555 3.556h24.889c1.962-0.006 3.55-1.594 3.556-3.555v-24.889c-0.006-1.962-1.594-3.55-3.555-3.556h-0.001zM26.666 19.556h-7.11v7.112h-7.112v-7.112h-7.11v-7.112h7.112v-7.11h7.112v7.112h7.112z"></path>
</symbol>
<symbol id="icozaux1-fire" viewBox="0 0 24 32">
<path d="M13.5 1.492c-0.003-0.828-0.674-1.497-1.502-1.497-0.524 0-0.986 0.269-1.255 0.676l-0.004 0.006c-7.74 11.324 3.26 11.824 3.26 17.324-0.017 2.196-1.801 3.97-4 3.97-2.209 0-4-1.791-4-4 0-0.011 0-0.021 0-0.032v0.002-5.34c0-0 0-0.001 0-0.002 0-0.828-0.672-1.5-1.5-1.5-0.429 0-0.816 0.18-1.089 0.469l-0.001 0.001c-2.079 2.198-3.37 5.16-3.41 8.424l-0 0.008c0 6.627 5.373 12 12 12s12-5.373 12-12v0c0-10.644-10.5-12.062-10.5-18.508z"></path>
</symbol>
<symbol id="icozaux1-temperature-low" viewBox="0 0 32 32">
<path d="M26 0c-3.314 0-6 2.686-6 6s2.686 6 6 6c3.314 0 6-2.686 6-6v0c0-3.314-2.686-6-6-6v0zM26 8c-1.105 0-2-0.895-2-2s0.895-2 2-2c1.105 0 2 0.895 2 2v0c0 1.105-0.895 2-2 2v0zM16 7c0-3.866-3.134-7-7-7s-7 3.134-7 7v0 10.4c-1.226 1.523-1.968 3.48-1.968 5.611 0 4.962 4.022 8.984 8.984 8.984s8.984-4.022 8.984-8.984c0-0.004 0-0.008 0-0.012v0.001c-0.007-2.131-0.761-4.085-2.013-5.616l0.013 0.016zM9 28c-2.755-0.009-4.984-2.244-4.984-5 0-1.623 0.773-3.066 1.972-3.979l0.012-0.009v-12.012c0-1.657 1.343-3 3-3s3 1.343 3 3v0 12.012c1.211 0.922 1.984 2.365 1.984 3.988 0 2.756-2.23 4.991-4.983 5h-0.001zM10 20.182v-1.182c0-0.552-0.448-1-1-1s-1 0.448-1 1v0 1.182c-1.175 0.424-2 1.53-2 2.828 0 1.657 1.343 3 3 3s3-1.343 3-3c0-1.298-0.825-2.404-1.979-2.822l-0.021-0.007z"></path>
</symbol>
<symbol id="icozaux1-leaf" viewBox="0 0 32 32">
<path d="M30.344 2.54c-0.132-0.319-0.441-0.54-0.801-0.54-0.335 0-0.625 0.191-0.769 0.469l-0.002 0.005c-1.665 2.923-4.76 4.862-8.307 4.862-0.007 0-0.015 0-0.022-0h-4.451c-5.889 0.005-10.661 4.779-10.662 10.668v0c0.009 0.412 0.039 0.806 0.090 1.193l-0.006-0.055c4.219-2.946 9.455-4.707 15.102-4.707 0.287 0 0.573 0.005 0.858 0.014l-0.042-0.001c0.491 0 0.889 0.398 0.889 0.889s-0.398 0.889-0.889 0.889v0c-13.968 0-19.89 8.562-21.202 11.778-0.081 0.196-0.128 0.424-0.128 0.663 0 0.983 0.797 1.78 1.78 1.78 0.735 0 1.366-0.446 1.638-1.081l0.004-0.012c0.98-2.002 2.329-3.682 3.973-5.012l0.027-0.021c1.959 2.647 5.071 4.345 8.58 4.345 0.4 0 0.794-0.022 1.182-0.065l-0.048 0.004c8.722-0.628 14.854-8.45 14.854-18.028 0-0.013 0-0.029 0-0.044 0-2.889-0.606-5.636-1.699-8.121l0.051 0.13z"></path>
</symbol>
<symbol id="icozaux1-shield-alt" viewBox="0 0 30 32">
<path d="M28.15 5.23l-12-5c-0.341-0.146-0.737-0.23-1.153-0.23s-0.812 0.085-1.173 0.238l0.020-0.007-12 5c-1.091 0.464-1.843 1.527-1.844 2.766v0c0 12.4 7.156 20.984 13.846 23.772 0.341 0.146 0.737 0.23 1.153 0.23s0.812-0.085 1.173-0.238l-0.020 0.007c5.356-2.23 13.85-9.936 13.85-23.772-0.002-1.24-0.757-2.304-1.832-2.759l-0.020-0.007zM15.008 27.894v-23.814l11 4.582c-0.2 9.464-5.132 16.32-10.988 19.234z"></path>
</symbol>
<symbol id="icozaux1-wind" viewBox="0 0 32 32">
<path d="M9.8 15.996h-8.8c-0.552 0-1 0.448-1 1v0 2c0 0.552 0.448 1 1 1v0h8.888c0.013-0 0.028-0 0.044-0 1.002 0 1.84 0.706 2.042 1.649l0.002 0.014c0.022 0.111 0.035 0.239 0.035 0.37 0 1.105-0.895 2-2 2-0.891 0-1.646-0.583-1.905-1.388l-0.004-0.014c-0.147-0.373-0.504-0.632-0.922-0.632-0.010 0-0.020 0-0.030 0l0.001-0h-2.052c-0.003-0-0.007-0-0.011-0-0.552 0-1 0.448-1 1 0 0.053 0.004 0.105 0.012 0.156l-0.001-0.006c0.563 2.777 2.984 4.838 5.886 4.838 3.314 0 6-2.686 6-6 0-0.274-0.018-0.543-0.054-0.807l0.003 0.031c-0.464-2.967-3.001-5.21-6.062-5.21-0.026 0-0.052 0-0.078 0l0.004-0zM1 13.996h21c0.001 0 0.002 0 0.002 0 3.314 0 6-2.686 6-6s-2.686-6-6-6c-2.91 0-5.336 2.071-5.884 4.82l-0.006 0.038c-0.008 0.048-0.013 0.102-0.013 0.158 0 0.545 0.441 0.986 0.986 0.986 0.005 0 0.010-0 0.016-0h2.049c0.010 0 0.021 0.001 0.032 0.001 0.417 0 0.773-0.26 0.915-0.626l0.002-0.007c0.262-0.819 1.017-1.402 1.909-1.402 1.105 0 2 0.895 2 2 0 0.131-0.013 0.259-0.037 0.383l0.002-0.013c-0.202 0.956-1.038 1.663-2.039 1.663-0.017 0-0.034-0-0.051-0.001l0.003 0h-20.886c-0.552 0-1 0.448-1 1v0 2c0 0.552 0.448 1 1 1v0zM25 15.996h-9.77c1.189 1.029 2.062 2.393 2.476 3.945l0.012 0.055h7.282c0.004-0 0.008-0 0.013-0 1.657 0 3 1.343 3 3s-1.343 3-3 3c-1.115 0-2.088-0.608-2.605-1.511l-0.008-0.015c-0.187-0.287-0.506-0.475-0.87-0.475-0.013 0-0.026 0-0.038 0.001l0.002-0h-2.114c-0.002-0-0.005-0-0.008-0-0.552 0-1 0.448-1 1 0 0.114 0.019 0.223 0.054 0.325l-0.002-0.007c0.986 2.75 3.57 4.682 6.605 4.682 3.866 0 7-3.134 7-7s-3.134-7-7-7c-0.010 0-0.020 0-0.031 0h0.002z"></path>
</symbol>
<symbol id="icozaux1-power-cord" viewBox="0 0 32 32">
<path d="M32 9.428l-3.020-3.020-5.966 5.966-3.388-3.388 5.966-5.966-3.020-3.020-5.966 5.966-3.83-3.822-2.892 2.884 17.088 17.088 2.892-2.892-3.83-3.83zM24.328 22.488l-14.816-14.812c-3.2 3.836-6.826 9.762-4.318 14.86l-4.416 4.408c-0.481 0.484-0.779 1.151-0.779 1.888s0.297 1.404 0.779 1.888l0.496 0.496c0.484 0.481 1.151 0.779 1.888 0.779s1.404-0.297 1.888-0.779l4.414-4.414c5.098 2.508 11.024-1.12 14.86-4.318z"></path>
</symbol>
<symbol id="icozaux1-build" viewBox="0 0 32 32">
<path d="M31.773 26.155l-13.296-13.298c0.398-1.001 0.628-2.161 0.628-3.375 0-2.627-1.080-5.001-2.82-6.704l-0.002-0.002c-1.743-1.719-4.138-2.781-6.781-2.781-1.462 0-2.849 0.325-4.091 0.907l0.059-0.025 6.284 6.282-4.376 4.384-6.439-6.284c-0.587 1.194-0.931 2.598-0.931 4.083 0 2.636 1.083 5.019 2.829 6.729l0.002 0.002c1.704 1.741 4.078 2.821 6.704 2.821 1.215 0 2.376-0.231 3.442-0.652l-0.064 0.022 13.296 13.296c0.257 0.272 0.62 0.441 1.023 0.441s0.766-0.169 1.023-0.44l0.001-0.001 3.36-3.36c0.345-0.241 0.567-0.635 0.567-1.082 0-0.38-0.161-0.723-0.42-0.963l-0.001-0.001z"></path>
</symbol>
<symbol id="icozaux1-tree" viewBox="0 0 24 32">
<path d="M23.644 23.654l-4.994-5.654h1.914c0.004 0 0.008 0 0.013 0 0.565 0 1.053-0.33 1.281-0.808l0.004-0.009c0.087-0.175 0.138-0.382 0.138-0.6 0-0.346-0.128-0.663-0.339-0.905l0.001 0.002-4.886-5.68h1.8c0.002 0 0.004 0 0.006 0 0.577 0 1.074-0.345 1.294-0.841l0.004-0.009c0.071-0.162 0.112-0.351 0.112-0.549 0-0.369-0.143-0.705-0.377-0.956l0.001 0.001-6.888-7.344c-0.186-0.187-0.444-0.302-0.729-0.302s-0.543 0.116-0.729 0.302v0l-6.892 7.342c-0.233 0.249-0.376 0.585-0.376 0.955 0 0.198 0.041 0.387 0.116 0.558l-0.003-0.009c0.224 0.506 0.721 0.852 1.299 0.852 0.002 0 0.004 0 0.005 0h1.8l-4.878 5.68c-0.209 0.241-0.337 0.557-0.337 0.903 0 0.218 0.050 0.424 0.14 0.607l-0.004-0.008c0.232 0.487 0.72 0.818 1.286 0.818 0.003 0 0.006 0 0.008-0h1.914l-5 5.656c-0.22 0.244-0.355 0.569-0.355 0.925 0 0.215 0.049 0.418 0.137 0.6l-0.004-0.008c0.238 0.494 0.735 0.828 1.31 0.828 0.004 0 0.007 0 0.011-0h8.553v1.528l-1.894 3.024c-0.067 0.131-0.106 0.285-0.106 0.448 0 0.552 0.448 1 1 1h6c0.552-0 1-0.448 1-1 0-0.163-0.039-0.317-0.109-0.454l0.003 0.006-1.894-3.026v-1.526h8.554c0.001 0 0.003 0 0.004 0 0.575 0 1.071-0.334 1.306-0.819l0.004-0.009c0.084-0.173 0.133-0.376 0.133-0.591 0-0.357-0.136-0.683-0.358-0.928l0.001 0.001z"></path>
</symbol>
<symbol id="icozaux1-metro-shop" viewBox="0 0 32 32">
<path d="M9.108 11.334l1.4-9.334h-7.308l-3.056 8c-0.091 0.264-0.144 0.569-0.144 0.886 0 0.001 0 0.001 0 0.002v-0c0.293 2.036 2.026 3.583 4.12 3.583 0.16 0 0.318-0.009 0.473-0.027l-0.019 0.002c0.111 0.010 0.24 0.016 0.37 0.016 1.964 0 3.623-1.306 4.156-3.097l0.008-0.031zM16 14.446c0.136 0.016 0.294 0.025 0.454 0.025 2.093 0 3.825-1.546 4.117-3.559l0.003-0.022c0-0.072 0-0.146 0-0.216l-0.904-8.674h-7.326l-0.908 8.668c0 0.072 0 0.146 0 0.222 0.294 2.035 2.026 3.58 4.119 3.58 0.159 0 0.315-0.009 0.469-0.026l-0.019 0.002zM24.888 16.306v7.030h-17.776v-7.020c-0.752 0.279-1.621 0.44-2.528 0.44-0.004 0-0.009 0-0.013 0h0.001c-0.364-0.006-0.715-0.038-1.058-0.094l0.042 0.006v11.288c0.002 1.373 1.113 2.485 2.486 2.49h19.914c1.372-0.006 2.482-1.116 2.488-2.487v-11.289c-0.3 0.049-0.651 0.081-1.008 0.088l-0.008 0c-0.911-0.002-1.784-0.168-2.589-0.471l0.051 0.017zM31.856 10.002l-3.060-8h-7.31l1.4 9.32c0.532 1.829 2.193 3.142 4.161 3.142 0.133 0 0.264-0.006 0.394-0.018l-0.017 0.001c0.135 0.016 0.292 0.024 0.451 0.024 2.093 0 3.825-1.546 4.117-3.558l0.003-0.022c-0-0.318-0.052-0.623-0.148-0.908l0.006 0.020z"></path>
</symbol>
<symbol id="icozaux1-parking" viewBox="0 0 32 32">
<path d="M28.572 0h-25.144c-1.893 0.001-3.427 1.535-3.428 3.428v25.144c0.001 1.893 1.535 3.427 3.428 3.428h25.144c1.893-0.001 3.427-1.535 3.428-3.428v-25.144c-0.001-1.893-1.535-3.427-3.428-3.428h-0zM17.142 20.572h-3.428v3.428c-0.002 0.63-0.512 1.14-1.142 1.142h-2.286c-0.63-0.002-1.14-0.512-1.142-1.142v-16c0.002-0.63 0.512-1.14 1.142-1.142h6.856c0.035-0.001 0.076-0.001 0.117-0.001 3.788 0 6.858 3.070 6.858 6.858s-3.070 6.858-6.858 6.858c-0.041 0-0.082-0-0.123-0.001l0.006 0zM17.142 11.43h-3.428v4.57h3.428c1.263 0 2.286-1.023 2.286-2.286s-1.023-2.286-2.286-2.286v0z"></path>
</symbol>
<symbol id="icozaux1-download" viewBox="0 0 26 32">
<path d="M26.354 11.294h-7.53v-11.294h-11.294v11.294h-7.524l13.176 13.176zM0.006 28.234v3.764h26.348v-3.764h-26.348z"></path>
</symbol>
<symbol id="icozaux1-phone2" viewBox="0 0 32 32">
<path d="M31.088 22.614l-7-3c-0.173-0.076-0.375-0.12-0.588-0.12-0.468 0-0.885 0.214-1.16 0.549l-0.002 0.003-3.1 3.788c-4.886-2.34-8.736-6.19-11.016-10.937l-0.060-0.139 3.788-3.1c0.338-0.276 0.553-0.694 0.553-1.161 0-0.213-0.044-0.415-0.124-0.598l0.004 0.010-3-7c-0.239-0.539-0.769-0.908-1.385-0.908-0.119 0-0.235 0.014-0.346 0.040l0.010-0.002-6.5 1.5c-0.671 0.159-1.162 0.753-1.162 1.461 0 0 0 0 0 0.001v-0c0 16.016 12.984 29 29 29v0c0 0 0 0 0.001 0 0.709 0 1.302-0.491 1.459-1.152l0.002-0.010 1.5-6.5c0.024-0.1 0.037-0.215 0.037-0.334 0-0.62-0.371-1.153-0.903-1.388l-0.010-0.004z"></path>
</symbol>
<symbol id="icozaux1-info" viewBox="0 0 32 32">
<path d="M0 16c0-8.837 7.163-16 16-16s16 7.163 16 16c0 8.837-7.163 16-16 16v0c-8.837 0-16-7.163-16-16v0zM6.968 6.97c-2.313 2.312-3.744 5.507-3.744 9.036 0 7.056 5.72 12.776 12.776 12.776s12.776-5.72 12.776-12.776c0-7.056-5.72-12.776-12.776-12.776v0c-0.007 0-0.016-0-0.024-0-3.519 0-6.705 1.43-9.008 3.74l-0 0zM14.386 24v-9.614h3.23v9.614zM14.386 11.23v-3.23h3.23v3.23z"></path>
</symbol>
</defs>
</svg>
